<svg width="70" height="70" viewBox="0 0 70 70" fill="none" xmlns="http://www.w3.org/2000/svg">
<rect width="70" height="70" rx="8" fill="#F2F2F2"/>
<path d="M22.61 56.955H23.585L27.86 46.455H20.885V47.28H26.54L22.61 56.955ZM36.0523 51.705C36.0523 48.33 34.6873 46.32 32.3773 46.32C30.0823 46.32 28.7173 48.33 28.7173 51.705C28.7173 55.065 30.0823 57.075 32.3773 57.075C34.6873 57.075 36.0523 55.065 36.0523 51.705ZM35.1373 51.705C35.1373 54.555 34.1023 56.25 32.3773 56.25C30.6523 56.25 29.6323 54.555 29.6323 51.705C29.6323 48.855 30.6523 47.16 32.3773 47.16C34.1023 47.16 35.1373 48.855 35.1373 51.705ZM48.5063 46.545L41.9663 57.045H43.0313L49.5563 46.545H48.5063ZM44.9963 48.525C44.9963 47.37 44.0513 46.44 42.8813 46.44C41.7263 46.44 40.7813 47.37 40.7813 48.525C40.7813 49.68 41.7263 50.61 42.8813 50.61C44.0513 50.61 44.9963 49.68 44.9963 48.525ZM41.6213 48.525C41.6213 47.835 42.1913 47.28 42.8813 47.28C43.5863 47.28 44.1563 47.835 44.1563 48.525C44.1563 49.215 43.5863 49.785 42.8813 49.785C42.1913 49.785 41.6213 49.215 41.6213 48.525ZM48.6563 52.995C47.4863 52.995 46.5413 53.925 46.5413 55.08C46.5413 56.22 47.4863 57.165 48.6563 57.165C49.8113 57.165 50.7563 56.22 50.7563 55.08C50.7563 53.925 49.8113 52.995 48.6563 52.995ZM48.6563 56.325C47.9513 56.325 47.3813 55.77 47.3813 55.08C47.3813 54.39 47.9513 53.82 48.6563 53.82C49.3463 53.82 49.9163 54.39 49.9163 55.08C49.9163 55.77 49.3463 56.325 48.6563 56.325Z" fill="#565656"/>
<path d="M23 12V36H47V12H23ZM23.9997 13.0255H45.9995V34.9738H23.9997V13.0255ZM31.3242 25.5909L30.5315 28.6641C30.5157 28.7526 30.4842 28.768 30.3867 28.768H28.9182C28.817 28.768 28.8013 28.7357 28.817 28.6195L31.6565 18.4189C31.7075 18.2342 31.7382 18.0704 31.754 17.5611C31.754 17.4927 31.7892 17.4611 31.8402 17.4611H33.9343C34.001 17.4611 34.0355 17.4773 34.0512 17.5611L37.235 28.6357C37.2545 28.7195 37.235 28.768 37.1533 28.768H35.5048C35.4185 28.768 35.372 28.748 35.3563 28.6795L34.5283 25.5901H31.3213L31.3242 25.5909ZM34.1135 23.9238C33.8322 22.7899 33.1722 20.3059 32.9262 19.1035H32.9067C32.696 20.3013 32.1643 22.333 31.7548 23.9238H34.1135ZM38.6135 18.2227C38.6135 17.5619 39.059 17.1726 39.6373 17.1726C40.247 17.1726 40.661 17.5973 40.661 18.2227C40.661 18.8997 40.2312 19.2728 39.6177 19.2728C39.02 19.2728 38.6097 18.9004 38.6097 18.2227H38.6135ZM38.7267 20.5544C38.7267 20.4744 38.7583 20.4421 38.84 20.4421H40.4105C40.5005 20.4421 40.5312 20.4744 40.5312 20.5621V28.6595C40.5312 28.7434 40.5155 28.7757 40.4142 28.7757H38.867C38.7658 28.7757 38.7343 28.7272 38.7343 28.6434V20.5536L38.7267 20.5544Z" fill="#565656"/>
</svg>
