<svg width="70" height="70" viewBox="0 0 70 70" fill="none" xmlns="http://www.w3.org/2000/svg">
<rect width="70" height="70" rx="8" fill="#F2F2F2"/>
<path d="M29.15 27.5C31.25 27.5 32 26 32 26L30.8 25.25C30.8 25.25 30.35 26 29.3 26C28.25 26 27.5 24.65 27.5 22.7C27.5 20.9 28.4 20 29.3 20C30.05 20 30.65 20.6 30.65 20.6L31.85 19.7C31.85 19.7 30.8 18.5 29.3 18.5C27.65 18.5 26 19.85 26 22.7C26 25.55 27.35 27.5 29.15 27.5ZM36.05 25.85C35.6 26 35 25.85 34.55 25.25L33.35 26C33.95 26.9 34.85 27.5 35.75 27.5C35.9 27.5 36.2 27.5 36.35 27.35C37.4 27.05 38 26.15 38 24.95C38 23.15 36.8 22.55 36.05 22.25C35.3 21.8 35 21.65 35 21.05C35 20.45 35.15 20 35.9 20C36.35 20 36.8 20.6 36.8 20.6L38 19.7C37.7 19.25 36.95 18.5 35.9 18.5C34.55 18.5 33.5 19.4 33.5 20.9C33.5 22.55 34.55 23.15 35.3 23.6C36.2 23.9 36.5 24.2 36.5 24.95C36.5 25.4 36.5 25.85 36.05 25.85ZM42.05 25.85C41.6 26 41 25.85 40.55 25.25L39.35 26C39.95 26.9 40.85 27.5 41.75 27.5C41.9 27.5 42.2 27.5 42.35 27.35C43.4 27.05 44 26.15 44 24.95C44 23.15 42.8 22.55 42.05 22.25C41.3 21.8 41 21.65 41 21.05C41 20.45 41.15 20 41.9 20C42.35 20 42.8 20.6 42.8 20.6L44 19.7C43.7 19.25 42.95 18.5 41.9 18.5C40.55 18.5 39.5 19.4 39.5 20.9C39.5 22.55 40.55 23.15 41.3 23.6C42.2 23.9 42.5 24.2 42.5 24.95C42.5 25.4 42.5 25.85 42.05 25.85V25.85ZM23 11V35H47V11H23ZM45.5 33.5H24.5V12.5H45.5V33.5Z" fill="#565656"/>
<path d="M20.74 56.115C21.865 54.915 24.19 52.425 25.345 51.195C25.585 50.94 25.885 50.535 26.02 50.16C26.14 49.86 26.2 49.545 26.2 49.215C26.2 47.625 24.775 46.335 23.02 46.335C21.28 46.335 19.855 47.625 19.855 49.215H20.77C20.77 48.09 21.79 47.175 23.02 47.175C24.265 47.175 25.27 48.09 25.27 49.215C25.27 49.44 25.24 49.68 25.15 49.89C25.075 50.1 24.865 50.415 24.64 50.655C23.185 52.215 19.84 55.8 19.45 56.22V56.955H26.68V56.115H20.74ZM34.7154 51.705C34.7154 48.33 33.3504 46.32 31.0404 46.32C28.7454 46.32 27.3804 48.33 27.3804 51.705C27.3804 55.065 28.7454 57.075 31.0404 57.075C33.3504 57.075 34.7154 55.065 34.7154 51.705ZM33.8004 51.705C33.8004 54.555 32.7654 56.25 31.0404 56.25C29.3154 56.25 28.2954 54.555 28.2954 51.705C28.2954 48.855 29.3154 47.16 31.0404 47.16C32.7654 47.16 33.8004 48.855 33.8004 51.705ZM47.1694 46.545L40.6294 57.045H41.6944L48.2194 46.545H47.1694ZM43.6594 48.525C43.6594 47.37 42.7144 46.44 41.5444 46.44C40.3894 46.44 39.4444 47.37 39.4444 48.525C39.4444 49.68 40.3894 50.61 41.5444 50.61C42.7144 50.61 43.6594 49.68 43.6594 48.525ZM40.2844 48.525C40.2844 47.835 40.8544 47.28 41.5444 47.28C42.2494 47.28 42.8194 47.835 42.8194 48.525C42.8194 49.215 42.2494 49.785 41.5444 49.785C40.8544 49.785 40.2844 49.215 40.2844 48.525ZM47.3194 52.995C46.1494 52.995 45.2044 53.925 45.2044 55.08C45.2044 56.22 46.1494 57.165 47.3194 57.165C48.4744 57.165 49.4194 56.22 49.4194 55.08C49.4194 53.925 48.4744 52.995 47.3194 52.995ZM47.3194 56.325C46.6144 56.325 46.0444 55.77 46.0444 55.08C46.0444 54.39 46.6144 53.82 47.3194 53.82C48.0094 53.82 48.5794 54.39 48.5794 55.08C48.5794 55.77 48.0094 56.325 47.3194 56.325Z" fill="#565656"/>
</svg>
