<svg width="109" height="70" viewBox="0 0 109 70" fill="none" xmlns="http://www.w3.org/2000/svg">
<rect width="109" height="70" rx="8" fill="#F2F2F2"/>
<path d="M38.462 17.67V16.2H31.826V26H33.436H38.462V24.53H33.436V21.786H38.084V20.33H33.436V17.67H38.462ZM46.4327 25.916V22.108V21.856C46.4327 21.758 46.4187 21.674 46.4187 21.576C46.4047 21.394 46.3767 21.198 46.3347 21.002C46.2367 20.61 46.0967 20.232 45.8307 19.868C45.7047 19.686 45.5507 19.518 45.3687 19.364C45.1867 19.21 44.9907 19.07 44.7667 18.972C44.5427 18.874 44.3047 18.79 44.0667 18.748C43.8287 18.72 43.5907 18.706 43.3667 18.706C42.9047 18.734 42.4287 18.86 42.0227 19.098C41.7287 19.266 41.4907 19.504 41.3087 19.756V18.916H39.6987V25.916H41.3087V22.374C41.3087 22.29 41.3227 22.192 41.3367 22.108C41.3507 21.8 41.4207 21.506 41.5327 21.24C41.6587 20.974 41.8267 20.722 42.0227 20.554C42.2327 20.386 42.4567 20.274 42.6807 20.218C42.9047 20.162 43.1147 20.148 43.3667 20.176C43.6047 20.19 43.8007 20.246 43.9687 20.344C44.1507 20.428 44.3047 20.554 44.4307 20.722C44.5567 20.876 44.6687 21.1 44.7387 21.324C44.7667 21.45 44.7947 21.562 44.8087 21.702C44.8087 21.758 44.8227 21.828 44.8227 21.884V22.108V25.916H46.4327ZM53.8545 18.916V19.84C53.5605 19.546 53.2105 19.28 52.7905 19.098C52.3425 18.888 51.8245 18.776 51.3205 18.762C50.8025 18.762 50.2845 18.846 49.8085 19.028C49.3325 19.21 48.8985 19.49 48.5485 19.826C47.8345 20.498 47.4425 21.422 47.4565 22.346C47.4425 23.27 47.8345 24.194 48.5485 24.88C48.8985 25.216 49.3325 25.482 49.8085 25.678C50.2845 25.86 50.8025 25.944 51.3205 25.93C51.8385 25.916 52.3425 25.804 52.7905 25.594C53.2105 25.412 53.5605 25.16 53.8545 24.852V25.02C53.8545 26.336 53.2385 27.106 51.9925 27.302C50.7885 27.512 49.4725 26.994 48.8985 26.084L47.4985 26.826C48.2965 28.058 49.8505 28.814 51.4605 28.814C51.7265 28.814 52.0065 28.8 52.2865 28.758C54.3165 28.422 55.4785 27.05 55.4785 25.02V18.916H53.8545ZM53.0285 23.942C52.7905 24.138 52.4965 24.264 52.2025 24.348C51.9225 24.432 51.6145 24.474 51.3205 24.46C50.7185 24.432 50.1585 24.222 49.7385 23.83C49.3185 23.438 49.0665 22.906 49.0665 22.346C49.0665 21.786 49.3045 21.254 49.7385 20.862C50.1585 20.47 50.7185 20.26 51.3205 20.232C51.6145 20.218 51.9225 20.26 52.2025 20.344C52.4965 20.428 52.7905 20.554 53.0285 20.75C53.5325 21.128 53.8545 21.73 53.8545 22.346C53.8545 22.976 53.5325 23.564 53.0285 23.942ZM58.5763 25.916V16.116H56.9663V25.916H58.5763ZM61.6525 25.916V18.916H60.0285V25.916H61.6525ZM60.8405 18.174C61.4145 18.174 61.8625 17.712 61.8625 17.152C61.8625 16.578 61.4145 16.116 60.8405 16.116C60.2665 16.116 59.8185 16.578 59.8185 17.152C59.8185 17.712 60.2665 18.174 60.8405 18.174ZM66.0622 21.59C65.9502 21.562 65.8662 21.534 65.7822 21.506C65.7402 21.478 65.6702 21.464 65.6002 21.436C65.0262 21.254 64.5082 21.044 64.5362 20.764C64.5782 20.232 65.5442 20.218 65.5582 20.218C66.4122 20.218 66.6782 20.568 66.8042 20.834L68.2882 20.26C67.8402 19.28 66.8602 18.748 65.5582 18.748C64.3682 18.748 63.0242 19.336 62.9262 20.652C62.8002 22.094 64.4382 22.626 65.0542 22.822C65.1102 22.836 65.1662 22.864 65.2082 22.878C65.3062 22.906 65.4182 22.948 65.5442 22.976C66.4402 23.256 66.9442 23.494 66.9582 23.942C66.9582 24.082 66.9022 24.208 66.7902 24.306C66.5522 24.516 66.1042 24.642 65.6422 24.614C65.0402 24.6 64.3262 24.334 64.1302 23.662L62.5762 24.054C62.9262 25.23 64.1022 26.028 65.5582 26.084C65.6282 26.084 65.6842 26.084 65.7402 26.084C66.6082 26.084 67.3922 25.832 67.9242 25.356C68.3582 24.964 68.5822 24.46 68.5682 23.9C68.5122 22.346 66.8602 21.828 66.0622 21.59ZM76.4421 25.916L76.4281 22.108C76.4421 21.408 76.3301 20.582 75.8121 19.854C75.5601 19.504 75.1821 19.182 74.7341 18.972C74.3001 18.762 73.7821 18.692 73.3341 18.706C73.1101 18.72 72.8721 18.748 72.6481 18.804C72.4101 18.874 72.1861 18.958 71.9901 19.07C71.7381 19.224 71.5141 19.406 71.3321 19.616V16.116H69.7221V25.916H71.3321V22.36C71.3461 22.276 71.3461 22.192 71.3601 22.108C71.3881 21.8 71.4581 21.52 71.5701 21.254C71.6961 21.002 71.8501 20.764 72.0461 20.582C72.2281 20.414 72.4381 20.302 72.6621 20.232C72.8721 20.176 73.0961 20.148 73.3341 20.176C73.8101 20.218 74.1461 20.386 74.4121 20.722C74.5381 20.89 74.6501 21.1 74.7201 21.338C74.7901 21.576 74.8181 21.814 74.8181 22.108V25.916H76.4421Z" fill="#565656"/>
<path d="M53.52 52.815C53.475 52.74 53.43 52.665 53.385 52.59C53.37 52.56 53.355 52.545 53.34 52.515C53.295 52.455 53.265 52.41 53.22 52.35C52.545 51.525 51.48 51.375 51.48 51.375C51.48 51.375 52.485 51.18 52.965 50.13C53.085 49.845 53.145 49.53 53.145 49.2C53.145 48.81 53.07 48.435 52.905 48.105C52.74 47.775 52.485 47.475 52.17 47.235C51.87 47.01 51.495 46.815 51.075 46.695C50.655 46.575 50.19 46.515 49.68 46.515H45.87V57H49.935C50.505 57 51.03 56.94 51.48 56.805C51.96 56.655 52.38 56.46 52.71 56.205C53.055 55.935 53.325 55.62 53.52 55.245C53.7 54.87 53.79 54.465 53.79 54.03C53.79 53.595 53.7 53.19 53.52 52.815ZM49.68 47.34C50.085 47.34 50.46 47.385 50.79 47.49C51.105 47.58 51.375 47.715 51.585 47.88C51.795 48.03 51.96 48.225 52.065 48.45C52.185 48.675 52.23 48.915 52.23 49.2C52.23 49.47 52.185 49.725 52.065 49.95C51.96 50.175 51.795 50.355 51.585 50.52C51.375 50.685 51.105 50.805 50.79 50.91C50.46 51 50.085 51.045 49.68 51.045H46.785V47.34H49.68ZM52.68 54.9C52.56 55.155 52.365 55.38 52.125 55.56C51.87 55.755 51.57 55.905 51.21 56.01C50.835 56.115 50.4 56.175 49.935 56.175H46.785V51.885H49.935C50.4 51.885 50.835 51.93 51.21 52.05C51.57 52.155 51.87 52.305 52.125 52.5C52.365 52.68 52.56 52.905 52.68 53.16C52.815 53.415 52.875 53.715 52.875 54.03C52.875 54.345 52.815 54.645 52.68 54.9ZM55.9832 56.115C57.1082 54.915 59.4332 52.425 60.5882 51.195C60.8282 50.94 61.1282 50.535 61.2632 50.16C61.3832 49.86 61.4432 49.545 61.4432 49.215C61.4432 47.625 60.0182 46.335 58.2632 46.335C56.5232 46.335 55.0982 47.625 55.0982 49.215H56.0132C56.0132 48.09 57.0332 47.175 58.2632 47.175C59.5082 47.175 60.5132 48.09 60.5132 49.215C60.5132 49.44 60.4832 49.68 60.3932 49.89C60.3182 50.1 60.1082 50.415 59.8832 50.655C58.4282 52.215 55.0832 55.8 54.6932 56.22V56.955H61.9232V56.115H55.9832Z" fill="#565656"/>
</svg>
