<svg width="113" height="70" viewBox="0 0 113 70" fill="none" xmlns="http://www.w3.org/2000/svg">
<rect width="113" height="70" rx="8" fill="#F2F2F2"/>
<path d="M49.09 51.285C47.95 50.58 46.87 50.775 46.87 50.775L50.185 47.37V46.455H43.72V47.28H49.06L45.61 50.91L46.18 51.615C46.45 51.54 46.72 51.495 47.005 51.495C48.46 51.495 49.645 52.56 49.645 53.865C49.645 55.17 48.46 56.235 47.005 56.235C45.55 56.235 44.38 55.17 44.38 53.865H43.465C43.465 55.62 45.055 57.06 47.005 57.06C48.97 57.06 50.56 55.62 50.56 53.865C50.56 52.8 49.99 51.855 49.09 51.285ZM59.0963 51.705C59.0963 48.33 57.7313 46.32 55.4213 46.32C53.1263 46.32 51.7613 48.33 51.7613 51.705C51.7613 55.065 53.1263 57.075 55.4213 57.075C57.7313 57.075 59.0963 55.065 59.0963 51.705ZM58.1813 51.705C58.1813 54.555 57.1463 56.25 55.4213 56.25C53.6963 56.25 52.6763 54.555 52.6763 51.705C52.6763 48.855 53.6963 47.16 55.4213 47.16C57.1463 47.16 58.1813 48.855 58.1813 51.705ZM67.9468 46.545L61.4068 57.045H62.4718L68.9968 46.545H67.9468ZM64.4368 48.525C64.4368 47.37 63.4918 46.44 62.3218 46.44C61.1668 46.44 60.2218 47.37 60.2218 48.525C60.2218 49.68 61.1668 50.61 62.3218 50.61C63.4918 50.61 64.4368 49.68 64.4368 48.525ZM61.0618 48.525C61.0618 47.835 61.6318 47.28 62.3218 47.28C63.0268 47.28 63.5968 47.835 63.5968 48.525C63.5968 49.215 63.0268 49.785 62.3218 49.785C61.6318 49.785 61.0618 49.215 61.0618 48.525ZM68.0968 52.995C66.9268 52.995 65.9818 53.925 65.9818 55.08C65.9818 56.22 66.9268 57.165 68.0968 57.165C69.2518 57.165 70.1968 56.22 70.1968 55.08C70.1968 53.925 69.2518 52.995 68.0968 52.995ZM68.0968 56.325C67.3918 56.325 66.8218 55.77 66.8218 55.08C66.8218 54.39 67.3918 53.82 68.0968 53.82C68.7868 53.82 69.3568 54.39 69.3568 55.08C69.3568 55.77 68.7868 56.325 68.0968 56.325Z" fill="#565656"/>
<path d="M60.7189 15.1389C61.219 14.8212 61.6045 14.3445 61.8171 13.7812C62.0297 13.2179 62.0578 12.5986 61.897 12.0175C61.7362 11.4363 61.3954 10.9249 60.9262 10.5608C60.4571 10.1967 59.8852 9.99981 59.2973 10H54.7028C54.1149 9.99978 53.543 10.1967 53.0738 10.5607C52.6046 10.9248 52.2638 11.4363 52.103 12.0175C51.9422 12.5987 51.9703 13.2179 52.1829 13.7812C52.3955 14.3446 52.7811 14.8213 53.2812 15.139C52.8895 15.3877 52.5662 15.7351 52.342 16.1484C52.1178 16.5616 52.0001 17.0269 52.0001 17.5001C52.0001 17.9733 52.1178 18.4386 52.342 18.8518C52.5663 19.2651 52.8896 19.6125 53.2812 19.8612C52.8809 20.1159 52.5522 20.4737 52.3278 20.8991C52.1034 21.3245 51.9911 21.8028 52.0019 22.2866C52.0127 22.7704 52.1464 23.2429 52.3896 23.6573C52.6328 24.0716 52.9771 24.4135 53.3884 24.649C53.7997 24.8845 54.2638 25.0054 54.7346 24.9998C55.2054 24.9942 55.6666 24.8623 56.0725 24.6171C56.4784 24.3719 56.815 24.0219 57.0488 23.6019C57.2826 23.1818 57.4055 22.7063 57.4055 22.2223V19.4813C57.6766 19.755 58.0009 19.9667 58.3572 20.1028C58.7134 20.2388 59.0935 20.2961 59.4728 20.2708C59.852 20.2455 60.2218 20.1383 60.5579 19.9561C60.8941 19.7739 61.1891 19.5209 61.4236 19.2136C61.6581 18.9062 61.8269 18.5515 61.9189 18.1725C62.011 17.7935 62.0241 17.3989 61.9576 17.0143C61.8911 16.6297 61.7464 16.2639 61.533 15.9408C61.3195 15.6176 61.0421 15.3444 60.7189 15.1389V15.1389ZM61.1892 12.7778C61.1887 13.2931 60.9893 13.7872 60.635 14.1517C60.2806 14.5161 59.8 14.7214 59.2987 14.7223L59.2973 14.7222L59.2947 14.7223L57.4055 14.7222V10.8333H59.2973C59.7989 10.8339 60.2798 11.039 60.6345 11.4035C60.9892 11.768 61.1887 12.2623 61.1892 12.7778V12.7778ZM52.8109 12.7778C52.8115 12.2623 53.011 11.768 53.3656 11.4035C53.7203 11.039 54.2012 10.8339 54.7028 10.8333H56.5947V14.7222H54.7015C54.2001 14.7213 53.7196 14.5161 53.3652 14.1516C53.0108 13.7871 52.8115 13.2931 52.8109 12.7778V12.7778ZM52.8109 17.5C52.8115 16.9847 53.0108 16.4907 53.3652 16.1262C53.7196 15.7617 54.2001 15.5565 54.7015 15.5556L54.7028 15.5556H56.5947V19.4445L54.7028 19.4445C54.2012 19.444 53.7203 19.2389 53.3656 18.8744C53.011 18.5098 52.8115 18.0156 52.8109 17.5V17.5ZM54.7028 24.1667C54.4534 24.1683 54.2062 24.1191 53.9753 24.0221C53.7445 23.9251 53.5346 23.7821 53.3577 23.6014C53.1808 23.4207 53.0405 23.2058 52.9447 22.9691C52.8489 22.7324 52.7996 22.4786 52.7996 22.2223C52.7996 21.966 52.8489 21.7122 52.9447 21.4755C53.0405 21.2388 53.1808 21.024 53.3577 20.8433C53.5346 20.6625 53.7445 20.5196 53.9753 20.4225C54.2062 20.3255 54.4534 20.2763 54.7028 20.2779H56.5947V22.2223C56.5941 22.7379 56.3946 23.2321 56.0399 23.5966C55.6852 23.9611 55.2044 24.1662 54.7028 24.1667V24.1667ZM59.2973 19.4445C58.7975 19.4418 58.3191 19.236 57.9665 18.8719C57.6138 18.5078 57.4157 18.0151 57.4154 17.5014C57.415 16.9877 57.6125 16.4947 57.9646 16.1302C58.3167 15.7656 58.7949 15.559 59.2947 15.5556H59.2987C59.7985 15.5589 60.2767 15.7653 60.6289 16.1297C60.9812 16.4942 61.1788 16.9871 61.1786 17.5008C61.1784 18.0145 60.9805 18.5072 60.628 18.8714C60.2755 19.2356 59.7971 19.4416 59.2973 19.4445V19.4445Z" fill="#565656"/>
<path d="M41.24 28.98V30.15C41.14 30.01 41.04 29.87 40.91 29.74C40.67 29.5 40.38 29.3 40.06 29.17C39.73 29.03 39.37 28.95 39.01 28.95C38.65 28.95 38.28 29.01 37.95 29.14C37.61 29.27 37.31 29.46 37.06 29.7C36.55 30.17 36.27 30.83 36.28 31.48C36.27 32.14 36.55 32.79 37.06 33.27C37.31 33.51 37.61 33.7 37.94 33.83C38.28 33.96 38.64 34.02 39.01 34.02C39.37 34.02 39.73 33.94 40.06 33.8C40.38 33.67 40.67 33.46 40.91 33.23C41.04 33.1 41.14 32.96 41.24 32.81V33.98H41.85V28.98H41.24ZM41.06 32.27C40.94 32.51 40.77 32.74 40.56 32.92C40.14 33.28 39.57 33.47 39.01 33.47C38.45 33.46 37.9 33.24 37.51 32.87C37.11 32.51 36.89 32 36.88 31.48C36.88 30.97 37.11 30.46 37.51 30.09C37.9 29.73 38.44 29.51 39.01 29.5C39.57 29.49 40.14 29.68 40.56 30.05C40.77 30.23 40.94 30.45 41.06 30.7C41.18 30.95 41.24 31.21 41.24 31.48C41.24 31.75 41.18 32.02 41.06 32.27ZM47.3167 33.98V31.14C47.3267 30.63 47.1967 30.08 46.8267 29.63C46.6367 29.41 46.3867 29.22 46.1067 29.1C45.8167 28.98 45.5067 28.94 45.2067 28.94C44.9167 28.95 44.6067 29.01 44.3367 29.14C44.0667 29.27 43.8367 29.46 43.6767 29.68C43.6167 29.76 43.5667 29.85 43.5267 29.93V28.98H42.9167V33.98H43.5267V31.25C43.5267 31.21 43.5267 31.18 43.5267 31.14C43.5467 30.91 43.5867 30.69 43.6667 30.48C43.7467 30.27 43.8667 30.08 44.0267 29.93C44.3267 29.61 44.7667 29.48 45.2067 29.5C45.6567 29.51 46.0667 29.67 46.3267 29.98C46.4567 30.13 46.5567 30.32 46.6167 30.51C46.6767 30.71 46.7067 30.92 46.7067 31.14V33.98H47.3167ZM48.849 33.98V28.98H48.229V33.98H48.849ZM48.539 27.14C48.279 27.14 48.069 27.35 48.069 27.61C48.069 27.88 48.279 28.09 48.539 28.09C48.799 28.09 49.019 27.88 49.019 27.61C49.019 27.35 48.799 27.14 48.539 27.14ZM56.9187 33.98V31.23V30.88C56.9187 30.76 56.9187 30.63 56.8987 30.5C56.8687 30.25 56.7887 29.99 56.6487 29.75C56.5087 29.5 56.2887 29.29 56.0187 29.14C55.8787 29.07 55.7287 29.02 55.5787 28.98C55.4287 28.95 55.2787 28.94 55.1287 28.94C54.9787 28.95 54.8287 28.97 54.6787 29.01C54.5387 29.05 54.3987 29.11 54.2687 29.19C54.0187 29.35 53.8387 29.57 53.7287 29.8C53.6787 29.91 53.6387 30.01 53.6187 30.12C53.5687 29.99 53.5187 29.87 53.4487 29.75C53.3087 29.5 53.0887 29.29 52.8187 29.14C52.6787 29.07 52.5387 29.02 52.3787 28.98C52.2287 28.95 52.0787 28.94 51.9287 28.94C51.7787 28.95 51.6287 28.97 51.4887 29.01C51.3387 29.05 51.1987 29.11 51.0787 29.19C50.8287 29.35 50.6387 29.57 50.5287 29.8C50.5287 29.81 50.5287 29.81 50.5287 29.81V28.99H49.9187V33.98H50.5287V31.14L50.5387 30.88C50.5387 30.77 50.5587 30.66 50.5787 30.55C50.6287 30.34 50.7187 30.14 50.8487 29.97C50.9787 29.8 51.1487 29.67 51.3387 29.59C51.5187 29.52 51.7187 29.49 51.9287 29.5C52.3487 29.51 52.6887 29.7 52.8887 30.02C52.9987 30.19 53.0587 30.38 53.0887 30.57C53.1087 30.68 53.1187 30.78 53.1187 30.88V31.23V33.98H53.7287V31.23V31.1V30.88C53.7387 30.77 53.7487 30.66 53.7787 30.55C53.8287 30.34 53.9187 30.13 54.0487 29.97C54.1787 29.8 54.3487 29.67 54.5287 29.59C54.7187 29.52 54.9187 29.49 55.1287 29.5C55.5387 29.51 55.8887 29.7 56.0887 30.02C56.1887 30.19 56.2587 30.38 56.2887 30.57C56.3087 30.67 56.3087 30.78 56.3087 30.88V31.23V33.98H56.9187ZM62.6267 28.98V30.15C62.5267 30.01 62.4267 29.87 62.2967 29.74C62.0567 29.5 61.7667 29.3 61.4467 29.17C61.1167 29.03 60.7567 28.95 60.3967 28.95C60.0367 28.95 59.6667 29.01 59.3367 29.14C58.9967 29.27 58.6967 29.46 58.4467 29.7C57.9367 30.17 57.6567 30.83 57.6667 31.48C57.6567 32.14 57.9367 32.79 58.4467 33.27C58.6967 33.51 58.9967 33.7 59.3267 33.83C59.6667 33.96 60.0267 34.02 60.3967 34.02C60.7567 34.02 61.1167 33.94 61.4467 33.8C61.7667 33.67 62.0567 33.46 62.2967 33.23C62.4267 33.1 62.5267 32.96 62.6267 32.81V33.98H63.2367V28.98H62.6267ZM62.4467 32.27C62.3267 32.51 62.1567 32.74 61.9467 32.92C61.5267 33.28 60.9567 33.47 60.3967 33.47C59.8367 33.46 59.2867 33.24 58.8967 32.87C58.4967 32.51 58.2767 32 58.2667 31.48C58.2667 30.97 58.4967 30.46 58.8967 30.09C59.2867 29.73 59.8267 29.51 60.3967 29.5C60.9567 29.49 61.5267 29.68 61.9467 30.05C62.1567 30.23 62.3267 30.45 62.4467 30.7C62.5667 30.95 62.6267 31.21 62.6267 31.48C62.6267 31.75 62.5667 32.02 62.4467 32.27ZM66.1534 33.17C65.9134 33.01 65.8234 32.75 65.8234 32.15V29.54H67.4734V28.98H65.8234V27.43L65.2134 27.76V28.99H63.8534V29.54H65.2134V32.15C65.2134 32.81 65.3134 33.31 65.7934 33.62C66.0834 33.8 66.4534 33.86 66.8634 33.86C67.0634 33.86 67.2634 33.85 67.4734 33.83V33.27C66.9934 33.32 66.4334 33.35 66.1534 33.17ZM68.8099 33.98V28.98H68.1899V33.98H68.8099ZM68.4999 27.14C68.2399 27.14 68.0299 27.35 68.0299 27.61C68.0299 27.88 68.2399 28.09 68.4999 28.09C68.7599 28.09 68.9799 27.88 68.9799 27.61C68.9799 27.35 68.7599 27.14 68.4999 27.14ZM72.3596 28.95C70.8496 28.95 69.6296 30.09 69.6296 31.48C69.6296 32.88 70.8496 34.02 72.3596 34.02C73.8696 34.02 75.0896 32.88 75.0896 31.48C75.0896 30.09 73.8696 28.95 72.3596 28.95ZM72.3596 33.47C71.1896 33.47 70.2396 32.58 70.2396 31.48C70.2396 30.39 71.1896 29.5 72.3596 29.5C73.5296 29.5 74.4796 30.39 74.4796 31.48C74.4796 32.58 73.5296 33.47 72.3596 33.47ZM80.305 33.98V31.14C80.315 30.63 80.185 30.08 79.815 29.63C79.625 29.41 79.375 29.22 79.095 29.1C78.805 28.98 78.495 28.94 78.195 28.94C77.905 28.95 77.595 29.01 77.325 29.14C77.055 29.27 76.825 29.46 76.665 29.68C76.605 29.76 76.555 29.85 76.515 29.93V28.98H75.905V33.98H76.515V31.25C76.515 31.21 76.515 31.18 76.515 31.14C76.535 30.91 76.575 30.69 76.655 30.48C76.735 30.27 76.855 30.08 77.015 29.93C77.315 29.61 77.755 29.48 78.195 29.5C78.645 29.51 79.055 29.67 79.315 29.98C79.445 30.13 79.545 30.32 79.605 30.51C79.665 30.71 79.695 30.92 79.695 31.14V33.98H80.305Z" fill="#565656"/>
</svg>
