<svg width="70" height="70" viewBox="0 0 70 70" fill="none" xmlns="http://www.w3.org/2000/svg">
<rect width="70" height="70" rx="8" fill="#F2F2F2"/>
<path d="M20.615 51.445C20.87 52.27 21.485 52.96 22.31 53.38C22.64 53.545 22.985 53.65 23.345 53.71C23.42 53.725 23.495 53.74 23.57 53.74V53.755C24.86 53.875 25.445 53.35 25.445 53.35L22.535 57.955H23.585L27.125 52.12C28.085 50.575 27.455 48.61 25.745 47.74C25.205 47.47 24.62 47.335 24.02 47.335C23.69 47.335 23.36 47.38 23.045 47.47C22.13 47.695 21.38 48.235 20.915 49C20.465 49.75 20.345 50.62 20.615 51.445ZM21.725 49.405C22.055 48.835 22.61 48.445 23.285 48.265C23.96 48.085 24.68 48.16 25.295 48.475C26.57 49.12 27.035 50.575 26.33 51.715C25.85 52.51 24.95 52.945 24.035 52.945C23.6 52.945 23.165 52.855 22.745 52.645C22.13 52.33 21.695 51.82 21.5 51.205C21.305 50.605 21.38 49.96 21.725 49.405ZM36.1109 52.705C36.1109 49.33 34.7459 47.32 32.4359 47.32C30.1409 47.32 28.7759 49.33 28.7759 52.705C28.7759 56.065 30.1409 58.075 32.4359 58.075C34.7459 58.075 36.1109 56.065 36.1109 52.705ZM35.1959 52.705C35.1959 55.555 34.1609 57.25 32.4359 57.25C30.7109 57.25 29.6909 55.555 29.6909 52.705C29.6909 49.855 30.7109 48.16 32.4359 48.16C34.1609 48.16 35.1959 49.855 35.1959 52.705ZM48.5649 47.545L42.0249 58.045H43.0899L49.6149 47.545H48.5649ZM45.0549 49.525C45.0549 48.37 44.1099 47.44 42.9399 47.44C41.7849 47.44 40.8399 48.37 40.8399 49.525C40.8399 50.68 41.7849 51.61 42.9399 51.61C44.1099 51.61 45.0549 50.68 45.0549 49.525ZM41.6799 49.525C41.6799 48.835 42.2499 48.28 42.9399 48.28C43.6449 48.28 44.2149 48.835 44.2149 49.525C44.2149 50.215 43.6449 50.785 42.9399 50.785C42.2499 50.785 41.6799 50.215 41.6799 49.525ZM48.7149 53.995C47.5449 53.995 46.5999 54.925 46.5999 56.08C46.5999 57.22 47.5449 58.165 48.7149 58.165C49.8699 58.165 50.8149 57.22 50.8149 56.08C50.8149 54.925 49.8699 53.995 48.7149 53.995ZM48.7149 57.325C48.0099 57.325 47.4399 56.77 47.4399 56.08C47.4399 55.39 48.0099 54.82 48.7149 54.82C49.4049 54.82 49.9749 55.39 49.9749 56.08C49.9749 56.77 49.4049 57.325 48.7149 57.325Z" fill="#565656"/>
<path d="M40.9503 20.2222C41.7504 19.7139 42.3672 18.9512 42.7074 18.0499C43.0476 17.1486 43.0924 16.1578 42.8352 15.2279C42.5779 14.2981 42.0326 13.4798 41.282 12.8972C40.5313 12.3147 39.6163 11.9997 38.6757 12H31.3244C30.3838 11.9997 29.4688 12.3146 28.7181 12.8972C27.9674 13.4797 27.4221 14.298 27.1648 15.228C26.9076 16.1579 26.9524 17.1487 27.2926 18.05C27.6328 18.9513 28.2498 19.714 29.0499 20.2224C28.4232 20.6202 27.906 21.1762 27.5472 21.8374C27.1885 22.4986 27.0002 23.2431 27.0002 24.0002C27.0002 24.7572 27.1885 25.5017 27.5473 26.1629C27.906 26.8241 28.4233 27.38 29.05 27.7779C28.4094 28.1854 27.8835 28.7578 27.5245 29.4385C27.1655 30.1192 26.9857 30.8845 27.003 31.6586C27.0204 32.4327 27.2342 33.1886 27.6233 33.8516C28.0124 34.5146 28.5633 35.0616 29.2214 35.4384C29.8796 35.8152 30.622 36.0087 31.3753 35.9997C32.1286 35.9907 32.8665 35.7796 33.516 35.3873C34.1655 34.995 34.7039 34.435 35.078 33.763C35.4521 33.0909 35.6488 32.33 35.6487 31.5557V27.1701C36.0826 27.608 36.6015 27.9468 37.1715 28.1644C37.7414 28.3821 38.3497 28.4737 38.9564 28.4333C39.5632 28.3928 40.1549 28.2213 40.6927 27.9298C41.2306 27.6383 41.7025 27.2335 42.0778 26.7417C42.453 26.2499 42.7231 25.6823 42.8703 25.076C43.0175 24.4696 43.0386 23.8382 42.9322 23.2229C42.8258 22.6076 42.5943 22.0223 42.2528 21.5052C41.9113 20.9882 41.4674 20.551 40.9503 20.2222ZM41.7027 16.4445C41.7018 17.269 41.3829 18.0595 40.8159 18.6426C40.2489 19.2258 39.4801 19.5542 38.6779 19.5557L38.6757 19.5556L38.6715 19.5557L35.6487 19.5556V13.3334H38.6757C39.4783 13.3343 40.2477 13.6623 40.8152 14.2456C41.3826 14.8289 41.7018 15.6197 41.7027 16.4445ZM28.2974 16.4445C28.2983 15.6197 28.6175 14.8289 29.185 14.2456C29.7525 13.6623 30.5219 13.3343 31.3244 13.3334H34.3514V19.5556H31.3224C30.5202 19.5541 29.7514 19.2258 29.1843 18.6426C28.6173 18.0594 28.2984 17.269 28.2974 16.4445ZM28.2974 24.0001C28.2983 23.1756 28.6172 22.3851 29.1843 21.8019C29.7513 21.2187 30.5202 20.8904 31.3224 20.8889L31.3244 20.889H34.3514V27.1111L31.3244 27.1112C30.5219 27.1103 29.7525 26.7822 29.185 26.199C28.6175 25.6157 28.2983 24.8249 28.2974 24.0001ZM31.3244 34.6668C30.9254 34.6692 30.5299 34.5906 30.1605 34.4353C29.7912 34.2801 29.4553 34.0513 29.1723 33.7622C28.8893 33.473 28.6648 33.1292 28.5115 32.7506C28.3582 32.3719 28.2793 31.9658 28.2793 31.5557C28.2793 31.1456 28.3582 30.7395 28.5115 30.3608C28.6648 29.9821 28.8893 29.6383 29.1723 29.3492C29.4553 29.0601 29.7912 28.8313 30.1605 28.6761C30.5299 28.5208 30.9254 28.4421 31.3244 28.4446H34.3514V31.5557C34.3505 32.3806 34.0313 33.1714 33.4638 33.7546C32.8964 34.3378 32.127 34.6659 31.3244 34.6668ZM38.6757 27.1112C37.876 27.1069 37.1105 26.7775 36.5463 26.195C35.9821 25.6125 35.6651 24.8242 35.6646 24.0023C35.664 23.1804 35.98 22.3916 36.5433 21.8083C37.1067 21.225 37.8718 20.8945 38.6715 20.889H38.6779C39.4776 20.8942 40.2427 21.2244 40.8063 21.8076C41.3699 22.3907 41.686 23.1793 41.6858 24.0012C41.6855 24.8232 41.3688 25.6116 40.8048 26.1943C40.2408 26.777 39.4754 27.1066 38.6757 27.1112Z" fill="#565656"/>
<mask id="mask0_201_4" style="mask-type:alpha" maskUnits="userSpaceOnUse" x="0" y="0" width="70" height="70">
<rect width="70" height="70" rx="8" fill="#F2F2F2"/>
</mask>
<g mask="url(#mask0_201_4)">
<g filter="url(#filter0_f_201_4)">
<path d="M-49.5953 -106.282C44.8429 -118.837 17.078 -153.772 25.965 -86.9245C34.8521 -20.0767 198.175 -1.06745 103.736 11.4876C9.29825 24.0427 -208.655 21.4055 -217.542 -45.4423C-226.429 -112.29 -144.034 -93.7266 -49.5953 -106.282Z" fill="url(#paint0_angular_201_4)" fill-opacity="0.2"/>
</g>
</g>
<defs>
<filter id="filter0_f_201_4" x="-273.201" y="-181.653" width="461.233" height="254.038" filterUnits="userSpaceOnUse" color-interpolation-filters="sRGB">
<feFlood flood-opacity="0" result="BackgroundImageFix"/>
<feBlend mode="normal" in="SourceGraphic" in2="BackgroundImageFix" result="shape"/>
<feGaussianBlur stdDeviation="27.5" result="effect1_foregroundBlur_201_4"/>
</filter>
<radialGradient id="paint0_angular_201_4" cx="0" cy="0" r="1" gradientUnits="userSpaceOnUse" gradientTransform="translate(-46.5468 -68.1753) rotate(-7.57279) scale(172.5 122.104)">
<stop stop-color="#FF9A9A"/>
<stop offset="1" stop-color="#D8FF6A" stop-opacity="0"/>
</radialGradient>
</defs>
</svg>
