<svg width="70" height="70" viewBox="0 0 70 70" fill="none" xmlns="http://www.w3.org/2000/svg">
<rect width="70" height="70" rx="8" fill="#F2F2F2"/>
<path d="M25.09 51.285C23.95 50.58 22.87 50.775 22.87 50.775L26.185 47.37V46.455H19.72V47.28H25.06L21.61 50.91L22.18 51.615C22.45 51.54 22.72 51.495 23.005 51.495C24.46 51.495 25.645 52.56 25.645 53.865C25.645 55.17 24.46 56.235 23.005 56.235C21.55 56.235 20.38 55.17 20.38 53.865H19.465C19.465 55.62 21.055 57.06 23.005 57.06C24.97 57.06 26.56 55.62 26.56 53.865C26.56 52.8 25.99 51.855 25.09 51.285ZM35.0963 51.705C35.0963 48.33 33.7313 46.32 31.4213 46.32C29.1263 46.32 27.7613 48.33 27.7613 51.705C27.7613 55.065 29.1263 57.075 31.4213 57.075C33.7313 57.075 35.0963 55.065 35.0963 51.705ZM34.1813 51.705C34.1813 54.555 33.1463 56.25 31.4213 56.25C29.6963 56.25 28.6763 54.555 28.6763 51.705C28.6763 48.855 29.6963 47.16 31.4213 47.16C33.1463 47.16 34.1813 48.855 34.1813 51.705ZM47.5503 46.545L41.0103 57.045H42.0753L48.6003 46.545H47.5503ZM44.0403 48.525C44.0403 47.37 43.0953 46.44 41.9253 46.44C40.7703 46.44 39.8253 47.37 39.8253 48.525C39.8253 49.68 40.7703 50.61 41.9253 50.61C43.0953 50.61 44.0403 49.68 44.0403 48.525ZM40.6653 48.525C40.6653 47.835 41.2353 47.28 41.9253 47.28C42.6303 47.28 43.2003 47.835 43.2003 48.525C43.2003 49.215 42.6303 49.785 41.9253 49.785C41.2353 49.785 40.6653 49.215 40.6653 48.525ZM47.7003 52.995C46.5303 52.995 45.5853 53.925 45.5853 55.08C45.5853 56.22 46.5303 57.165 47.7003 57.165C48.8553 57.165 49.8003 56.22 49.8003 55.08C49.8003 53.925 48.8553 52.995 47.7003 52.995ZM47.7003 56.325C46.9953 56.325 46.4253 55.77 46.4253 55.08C46.4253 54.39 46.9953 53.82 47.7003 53.82C48.3903 53.82 48.9603 54.39 48.9603 55.08C48.9603 55.77 48.3903 56.325 47.7003 56.325Z" fill="#565656"/>
<path d="M48 30.5H43.5V23H45V29H48V30.5Z" fill="#565656"/>
<path d="M25.5 30.5V27.5H22.5V30.5H21V23H22.5V26H25.5V23H27V30.5H25.5Z" fill="#565656"/>
<path d="M30 30.5V24.5H27.9V23H33.45V24.5H31.5V30.5H30Z" fill="#565656"/>
<path d="M34.5 30.5V23H36L38.1 28.1H38.25L40.5 23H42V30.5H40.5V25.85H40.35L38.7 29.6H37.8L36.15 25.85H36V30.5H34.5Z" fill="#565656"/>
<path d="M33.6 12.8L30.15 16.25L33.6 19.7L32.7 21.5L27.45 16.25L32.7 11L33.6 12.8ZM35.4 19.7L38.85 16.25L35.4 12.8L36.3 11L41.55 16.25L36.3 21.5L35.4 19.7V19.7Z" fill="#565656"/>
</svg>
