<svg width="70" height="70" viewBox="0 0 70 70" fill="none" xmlns="http://www.w3.org/2000/svg">
<rect width="70" height="70" rx="8" fill="#F2F2F2"/>
<path d="M22.36 47.685V48.615L24.805 47.505V56.955H25.72V46.155L22.36 47.685ZM34.6393 51.705C34.6393 48.33 33.2743 46.32 30.9643 46.32C28.6693 46.32 27.3043 48.33 27.3043 51.705C27.3043 55.065 28.6693 57.075 30.9643 57.075C33.2743 57.075 34.6393 55.065 34.6393 51.705ZM33.7243 51.705C33.7243 54.555 32.6893 56.25 30.9643 56.25C29.2393 56.25 28.2193 54.555 28.2193 51.705C28.2193 48.855 29.2393 47.16 30.9643 47.16C32.6893 47.16 33.7243 48.855 33.7243 51.705ZM47.0932 46.545L40.5532 57.045H41.6182L48.1432 46.545H47.0932ZM43.5832 48.525C43.5832 47.37 42.6382 46.44 41.4682 46.44C40.3132 46.44 39.3682 47.37 39.3682 48.525C39.3682 49.68 40.3132 50.61 41.4682 50.61C42.6382 50.61 43.5832 49.68 43.5832 48.525ZM40.2082 48.525C40.2082 47.835 40.7782 47.28 41.4682 47.28C42.1732 47.28 42.7432 47.835 42.7432 48.525C42.7432 49.215 42.1732 49.785 41.4682 49.785C40.7782 49.785 40.2082 49.215 40.2082 48.525ZM47.2432 52.995C46.0732 52.995 45.1282 53.925 45.1282 55.08C45.1282 56.22 46.0732 57.165 47.2432 57.165C48.3982 57.165 49.3432 56.22 49.3432 55.08C49.3432 53.925 48.3982 52.995 47.2432 52.995ZM47.2432 56.325C46.5382 56.325 45.9682 55.77 45.9682 55.08C45.9682 54.39 46.5382 53.82 47.2432 53.82C47.9332 53.82 48.5032 54.39 48.5032 55.08C48.5032 55.77 47.9332 56.325 47.2432 56.325Z" fill="#565656"/>
<path d="M24 11V33H46V11H24ZM26 13H44V31H26V13ZM39.244 21C37.819 21 36.898 21.912 36.898 23.12C36.898 24.43 37.668 25.057 38.826 25.55L39.226 25.723C39.959 26.046 40.395 26.234 40.395 26.785C40.395 27.25 39.968 27.584 39.303 27.584C38.515 27.584 38.067 27.166 37.725 26.605L36.415 27.355C36.879 28.286 37.848 29 39.34 29C40.86 29 42 28.212 42 26.768C42 25.418 41.23 24.819 39.861 24.24L39.463 24.068C38.77 23.764 38.475 23.565 38.475 23.09C38.475 22.7 38.769 22.396 39.245 22.396C39.71 22.396 40.003 22.596 40.279 23.09L41.535 22.283C41.003 21.353 40.27 21 39.245 21H39.244ZM33.394 21.096V26.559C33.394 27.357 33.052 27.564 32.529 27.564C31.979 27.564 31.741 27.185 31.494 26.738L30.184 27.528C30.564 28.335 31.313 29 32.596 29C34.02 29 35 28.24 35 26.576V21.096H33.395H33.394Z" fill="#565656"/>
</svg>
