<svg width="15" height="20" viewBox="0 0 15 20" fill="none" xmlns="http://www.w3.org/2000/svg">
<path d="M7.57812 0C6.5625 0 5.58919 0.205078 4.6582 0.615234C3.72721 1.02539 2.92318 1.57227 2.24609 2.25586C1.56901 2.93945 1.02539 3.75 0.615234 4.6875C0.205078 5.625 0 6.60156 0 7.61719C0 8.1901 0.078125 8.78906 0.234375 9.41406C0.390625 10.0391 0.572917 10.6185 0.78125 11.1523C0.989583 11.6862 1.28906 12.2786 1.67969 12.9297C2.07031 13.5807 2.41862 14.1309 2.72461 14.5801C3.0306 15.0293 3.44401 15.5762 3.96484 16.2207C4.48568 16.8652 4.88932 17.3568 5.17578 17.6953C5.46224 18.0339 5.86589 18.5026 6.38672 19.1016C6.54297 19.2839 6.66016 19.4141 6.73828 19.4922C6.76432 19.5312 6.8099 19.5801 6.875 19.6387C6.9401 19.6973 7.05729 19.7721 7.22656 19.8633C7.39583 19.9544 7.55859 20 7.71484 20H7.77344C8.13802 20 8.46354 19.8307 8.75 19.4922C12.9167 14.7005 15 10.7422 15 7.61719C15 5.44271 14.3359 3.63932 13.0078 2.20703C11.6276 0.735677 9.81771 0 7.57812 0ZM7.8125 18.6523C7.79948 18.6784 7.77344 18.7044 7.73438 18.7305L7.65625 18.6523L7.32422 18.2812C6.82943 17.7083 6.44531 17.2624 6.17188 16.9434C5.89844 16.6243 5.51432 16.1589 5.01953 15.5469C4.52474 14.9349 4.13411 14.4173 3.84766 13.9941C3.5612 13.571 3.22917 13.0566 2.85156 12.4512C2.47396 11.8457 2.18424 11.2988 1.98242 10.8105C1.7806 10.3223 1.60807 9.79492 1.46484 9.22852C1.32161 8.66211 1.25 8.125 1.25 7.61719C1.25 6.48438 1.53646 5.42643 2.10938 4.44336C2.68229 3.46029 3.45378 2.68229 4.42383 2.10938C5.39388 1.53646 6.44531 1.25 7.57812 1.25C8.60677 1.25 9.52474 1.42904 10.332 1.78711C11.1393 2.14518 11.7871 2.63021 12.2754 3.24219C12.7637 3.85417 13.1315 4.53125 13.3789 5.27344C13.6263 6.01562 13.75 6.79688 13.75 7.61719C13.75 10.4297 11.7708 14.1081 7.8125 18.6523ZM7.51953 3.76953C7.11589 3.76953 6.72201 3.83464 6.33789 3.96484C5.95378 4.09505 5.60872 4.27409 5.30273 4.50195C4.99674 4.72982 4.72656 5 4.49219 5.3125C4.25781 5.625 4.07878 5.97005 3.95508 6.34766C3.83138 6.72526 3.76953 7.11589 3.76953 7.51953C3.76953 8.5612 4.13737 9.44661 4.87305 10.1758C5.60872 10.9049 6.49414 11.2695 7.5293 11.2695C8.56445 11.2695 9.44661 10.9049 10.1758 10.1758C10.9049 9.44661 11.2695 8.5612 11.2695 7.51953C11.2695 7.01172 11.1719 6.52669 10.9766 6.06445C10.7812 5.60221 10.5143 5.20508 10.1758 4.87305C9.83724 4.54102 9.43685 4.27409 8.97461 4.07227C8.51237 3.87044 8.02734 3.76953 7.51953 3.76953ZM7.51953 10.0195C6.82943 10.0195 6.23698 9.77214 5.74219 9.27734C5.2474 8.78255 5 8.1901 5 7.5C5 6.8099 5.24414 6.2207 5.73242 5.73242C6.2207 5.24414 6.8099 5 7.5 5C8.1901 5 8.7793 5.24414 9.26758 5.73242C9.75586 6.2207 10 6.8099 10 7.5C10 8.35938 9.65495 9.04297 8.96484 9.55078C8.53516 9.86328 8.05339 10.0195 7.51953 10.0195Z" fill="#565656"/>
</svg>
