<svg width="70" height="70" viewBox="0 0 70 70" fill="none" xmlns="http://www.w3.org/2000/svg">
<rect width="70" height="70" rx="8" fill="#F2F2F2"/>
<path d="M26.78 52.645C26.48 52.39 26.12 52.195 25.76 52.045C25.94 51.955 26.12 51.835 26.285 51.7C26.84 51.265 27.2 50.59 27.215 49.885C27.23 49.195 26.87 48.505 26.315 48.04C25.76 47.575 25.01 47.32 24.26 47.32C23.51 47.335 22.76 47.575 22.205 48.055C21.65 48.505 21.29 49.195 21.305 49.885C21.305 50.59 21.665 51.265 22.22 51.715C22.385 51.835 22.565 51.955 22.745 52.045C22.37 52.195 22.025 52.39 21.725 52.63C21.035 53.2 20.6 54.04 20.615 54.895C20.6 55.75 21.02 56.605 21.71 57.175C22.4 57.76 23.33 58.075 24.26 58.075C25.19 58.075 26.12 57.76 26.81 57.175C27.485 56.605 27.92 55.75 27.905 54.895C27.905 54.04 27.47 53.2 26.78 52.645ZM22.145 49.885C22.16 49.42 22.4 48.955 22.79 48.64C23.195 48.325 23.72 48.145 24.26 48.16C24.785 48.16 25.325 48.325 25.715 48.64C26.105 48.955 26.36 49.42 26.36 49.885C26.375 50.365 26.135 50.83 25.745 51.175C25.355 51.505 24.8 51.685 24.26 51.685C23.705 51.685 23.165 51.49 22.775 51.16C22.37 50.83 22.145 50.365 22.145 49.885ZM26.195 56.575C25.67 57.01 24.965 57.25 24.26 57.25C23.54 57.25 22.835 57.01 22.31 56.59C21.785 56.155 21.47 55.54 21.47 54.895C21.455 54.25 21.77 53.62 22.295 53.185C22.805 52.735 23.525 52.48 24.26 52.48C24.98 52.48 25.7 52.735 26.225 53.185C26.75 53.62 27.065 54.25 27.05 54.895C27.05 55.54 26.72 56.155 26.195 56.575ZM36.4479 52.705C36.4479 49.33 35.0829 47.32 32.7729 47.32C30.4779 47.32 29.1129 49.33 29.1129 52.705C29.1129 56.065 30.4779 58.075 32.7729 58.075C35.0829 58.075 36.4479 56.065 36.4479 52.705ZM35.5329 52.705C35.5329 55.555 34.4979 57.25 32.7729 57.25C31.0479 57.25 30.0279 55.555 30.0279 52.705C30.0279 49.855 31.0479 48.16 32.7729 48.16C34.4979 48.16 35.5329 49.855 35.5329 52.705ZM48.9018 47.545L42.3618 58.045H43.4268L49.9518 47.545H48.9018ZM45.3918 49.525C45.3918 48.37 44.4468 47.44 43.2768 47.44C42.1218 47.44 41.1768 48.37 41.1768 49.525C41.1768 50.68 42.1218 51.61 43.2768 51.61C44.4468 51.61 45.3918 50.68 45.3918 49.525ZM42.0168 49.525C42.0168 48.835 42.5868 48.28 43.2768 48.28C43.9818 48.28 44.5518 48.835 44.5518 49.525C44.5518 50.215 43.9818 50.785 43.2768 50.785C42.5868 50.785 42.0168 50.215 42.0168 49.525ZM49.0518 53.995C47.8818 53.995 46.9368 54.925 46.9368 56.08C46.9368 57.22 47.8818 58.165 49.0518 58.165C50.2068 58.165 51.1518 57.22 51.1518 56.08C51.1518 54.925 50.2068 53.995 49.0518 53.995ZM49.0518 57.325C48.3468 57.325 47.7768 56.77 47.7768 56.08C47.7768 55.39 48.3468 54.82 49.0518 54.82C49.7418 54.82 50.3118 55.39 50.3118 56.08C50.3118 56.77 49.7418 57.325 49.0518 57.325Z" fill="#565656"/>
<path d="M22 12V36H47V12H22ZM23.0414 13.0255H45.9578V34.9738H23.0414V13.0255ZM28.0422 17.6211C28.0422 17.5527 28.1891 17.5011 28.2742 17.5011C29.169 17.4638 30.0646 17.4464 30.9602 17.4488C33.8492 17.4488 34.9719 19.0074 34.9719 21.0029C34.9719 23.6115 33.0516 24.7293 30.6992 24.7293C30.3008 24.7293 30.1664 24.7093 29.8898 24.7093V28.6518C29.8898 28.7357 29.857 28.7718 29.7719 28.7718H28.1602C28.075 28.7718 28.0422 28.7395 28.0422 28.6557V17.6211ZM29.8898 23.0707C30.1297 23.0869 30.3211 23.0869 30.7359 23.0869C31.9523 23.0869 33.1 22.6622 33.1 21.0398C33.1 19.7374 32.2781 19.0766 30.8867 19.0766C30.4758 19.0766 30.0812 19.0928 29.8898 19.1089V23.0707ZM38.8578 21.8483C38.032 21.8483 37.7555 22.2568 37.7555 22.5938C37.7555 22.9661 37.943 23.2192 39.0453 23.78C40.6773 24.5616 41.1938 25.3024 41.1938 26.404C41.1938 28.0426 39.9203 28.9242 38.2031 28.9242C37.2914 28.9242 36.5148 28.7357 36.0672 28.4834C36.0023 28.4511 35.9859 28.3995 35.9859 28.3149V26.8086C35.9859 26.7086 36.0352 26.6725 36.1039 26.7248C36.7274 27.124 37.4555 27.3357 38.1992 27.3341C39.025 27.3341 39.3672 26.9971 39.3672 26.5371C39.3672 26.1648 39.1273 25.844 38.0812 25.3032C36.6 24.6062 35.9812 23.8969 35.9812 22.7107C35.9812 21.3883 37.0313 20.2905 38.85 20.2905C39.7453 20.2905 40.3758 20.4267 40.7219 20.5752C40.807 20.6275 40.8234 20.7113 40.8234 20.7798V22.186C40.8234 22.2699 40.7703 22.3222 40.6687 22.286C40.2047 22.0176 39.5211 21.8452 38.8539 21.8452L38.8578 21.8483Z" fill="#565656"/>
</svg>
